<svg id="visual" viewBox="0 0 900 450" width="900" height="450" xmlns="http://www.w3.org/2000/svg" xmlns:xlink="http://www.w3.org/1999/xlink" version="1.1"><rect x="0" y="0" width="900" height="450" fill="#010309"></rect><path d="M758 450L787 450L787 430L465 430L465 411L777 411L777 391L560 391L560 372L681 372L681 352L500 352L500 333L485 333L485 313L716 313L716 293L810 293L810 274L640 274L640 254L379 254L379 235L752 235L752 215L776 215L776 196L734 196L734 176L778 176L778 157L886 157L886 137L439 137L439 117L334 117L334 98L775 98L775 78L461 78L461 59L735 59L735 39L672 39L672 20L671 20L671 0L900 0L900 20L900 20L900 39L900 39L900 59L900 59L900 78L900 78L900 98L900 98L900 117L900 117L900 137L900 137L900 157L900 157L900 176L900 176L900 196L900 196L900 215L900 215L900 235L900 235L900 254L900 254L900 274L900 274L900 293L900 293L900 313L900 313L900 333L900 333L900 352L900 352L900 372L900 372L900 391L900 391L900 411L900 411L900 430L900 430L900 450L900 450Z" fill="#0d1a5e"></path><path d="M479 450L750 450L750 430L862 430L862 411L471 411L471 391L481 391L481 372L850 372L850 352L398 352L398 333L339 333L339 313L878 313L878 293L491 293L491 274L358 274L358 254L334 254L334 235L592 235L592 215L624 215L624 196L335 196L335 176L322 176L322 157L331 157L331 137L495 137L495 117L385 117L385 98L684 98L684 78L505 78L505 59L743 59L743 39L882 39L882 20L867 20L867 0L900 0L900 20L900 20L900 39L900 39L900 59L900 59L900 78L900 78L900 98L900 98L900 117L900 117L900 137L900 137L900 157L900 157L900 176L900 176L900 196L900 196L900 215L900 215L900 235L900 235L900 254L900 254L900 274L900 274L900 293L900 293L900 313L900 313L900 333L900 333L900 352L900 352L900 372L900 372L900 391L900 391L900 411L900 411L900 430L900 430L900 450L900 450Z" fill="#0e1d68"></path><path d="M601 450L899 450L899 430L719 430L719 411L623 411L623 391L502 391L502 372L627 372L627 352L649 352L649 333L558 333L558 313L677 313L677 293L493 293L493 274L888 274L888 254L550 254L550 235L899 235L899 215L713 215L713 196L866 196L866 176L809 176L809 157L424 157L424 137L634 137L634 117L842 117L842 98L389 98L389 78L517 78L517 59L834 59L834 39L883 39L883 20L380 20L380 0L900 0L900 20L900 20L900 39L900 39L900 59L900 59L900 78L900 78L900 98L900 98L900 117L900 117L900 137L900 137L900 157L900 157L900 176L900 176L900 196L900 196L900 215L900 215L900 235L900 235L900 254L900 254L900 274L900 274L900 293L900 293L900 313L900 313L900 333L900 333L900 352L900 352L900 372L900 372L900 391L900 391L900 411L900 411L900 430L900 430L900 450L900 450Z" fill="#0f2073"></path><path d="M777 450L606 450L606 430L790 430L790 411L749 411L749 391L667 391L667 372L446 372L446 352L510 352L510 333L528 333L528 313L664 313L664 293L887 293L887 274L882 274L882 254L577 254L577 235L795 235L795 215L638 215L638 196L726 196L726 176L889 176L889 157L638 157L638 137L564 137L564 117L649 117L649 98L513 98L513 78L625 78L625 59L423 59L423 39L506 39L506 20L850 20L850 0L900 0L900 20L900 20L900 39L900 39L900 59L900 59L900 78L900 78L900 98L900 98L900 117L900 117L900 137L900 137L900 157L900 157L900 176L900 176L900 196L900 196L900 215L900 215L900 235L900 235L900 254L900 254L900 274L900 274L900 293L900 293L900 313L900 313L900 333L900 333L900 352L900 352L900 372L900 372L900 391L900 391L900 411L900 411L900 430L900 430L900 450L900 450Z" fill="#0f237e"></path><path d="M659 450L891 450L891 430L789 430L789 411L599 411L599 391L522 391L522 372L501 372L501 352L491 352L491 333L717 333L717 313L503 313L503 293L753 293L753 274L551 274L551 254L508 254L508 235L749 235L749 215L503 215L503 196L568 196L568 176L528 176L528 157L531 157L531 137L703 137L703 117L615 117L615 98L586 98L586 78L490 78L490 59L764 59L764 39L800 39L800 20L854 20L854 0L900 0L900 20L900 20L900 39L900 39L900 59L900 59L900 78L900 78L900 98L900 98L900 117L900 117L900 137L900 137L900 157L900 157L900 176L900 176L900 196L900 196L900 215L900 215L900 235L900 235L900 254L900 254L900 274L900 274L900 293L900 293L900 313L900 313L900 333L900 333L900 352L900 352L900 372L900 372L900 391L900 391L900 411L900 411L900 430L900 430L900 450L900 450Z" fill="#102688"></path><path d="M752 450L628 450L628 430L524 430L524 411L539 411L539 391L721 391L721 372L629 372L629 352L870 352L870 333L736 333L736 313L566 313L566 293L518 293L518 274L537 274L537 254L607 254L607 235L700 235L700 215L629 215L629 196L562 196L562 176L827 176L827 157L712 157L712 137L529 137L529 117L833 117L833 98L772 98L772 78L644 78L644 59L606 59L606 39L841 39L841 20L864 20L864 0L900 0L900 20L900 20L900 39L900 39L900 59L900 59L900 78L900 78L900 98L900 98L900 117L900 117L900 137L900 137L900 157L900 157L900 176L900 176L900 196L900 196L900 215L900 215L900 235L900 235L900 254L900 254L900 274L900 274L900 293L900 293L900 313L900 313L900 333L900 333L900 352L900 352L900 372L900 372L900 391L900 391L900 411L900 411L900 430L900 430L900 450L900 450Z" fill="#112993"></path><path d="M795 450L730 450L730 430L582 430L582 411L774 411L774 391L799 391L799 372L880 372L880 352L776 352L776 333L778 333L778 313L588 313L588 293L800 293L800 274L668 274L668 254L584 254L584 235L830 235L830 215L585 215L585 196L863 196L863 176L821 176L821 157L744 157L744 137L718 137L718 117L883 117L883 98L568 98L568 78L765 78L765 59L716 59L716 39L672 39L672 20L608 20L608 0L900 0L900 20L900 20L900 39L900 39L900 59L900 59L900 78L900 78L900 98L900 98L900 117L900 117L900 137L900 137L900 157L900 157L900 176L900 176L900 196L900 196L900 215L900 215L900 235L900 235L900 254L900 254L900 274L900 274L900 293L900 293L900 313L900 313L900 333L900 333L900 352L900 352L900 372L900 372L900 391L900 391L900 411L900 411L900 430L900 430L900 450L900 450Z" fill="#132d9e"></path><path d="M661 450L779 450L779 430L728 430L728 411L864 411L864 391L830 391L830 372L756 372L756 352L714 352L714 333L849 333L849 313L785 313L785 293L773 293L773 274L744 274L744 254L632 254L632 235L739 235L739 215L779 215L779 196L892 196L892 176L612 176L612 157L760 157L760 137L747 137L747 117L660 117L660 98L739 98L739 78L844 78L844 59L804 59L804 39L696 39L696 20L684 20L684 0L900 0L900 20L900 20L900 39L900 39L900 59L900 59L900 78L900 78L900 98L900 98L900 117L900 117L900 137L900 137L900 157L900 157L900 176L900 176L900 196L900 196L900 215L900 215L900 235L900 235L900 254L900 254L900 274L900 274L900 293L900 293L900 313L900 313L900 333L900 333L900 352L900 352L900 372L900 372L900 391L900 391L900 411L900 411L900 430L900 430L900 450L900 450Z" fill="#1430aa"></path><path d="M683 450L702 450L702 430L784 430L784 411L718 411L718 391L701 391L701 372L699 372L699 352L729 352L729 333L858 333L858 313L733 313L733 293L696 293L696 274L873 274L873 254L818 254L818 235L659 235L659 215L848 215L848 196L747 196L747 176L707 176L707 157L729 157L729 137L800 137L800 117L829 117L829 98L719 98L719 78L900 78L900 59L727 59L727 39L896 39L896 20L717 20L717 0L900 0L900 20L900 20L900 39L900 39L900 59L900 59L900 78L900 78L900 98L900 98L900 117L900 117L900 137L900 137L900 157L900 157L900 176L900 176L900 196L900 196L900 215L900 215L900 235L900 235L900 254L900 254L900 274L900 274L900 293L900 293L900 313L900 313L900 333L900 333L900 352L900 352L900 372L900 372L900 391L900 391L900 411L900 411L900 430L900 430L900 450L900 450Z" fill="#1633b5"></path><path d="M713 450L874 450L874 430L800 430L800 411L872 411L872 391L799 391L799 372L838 372L838 352L847 352L847 333L769 333L769 313L833 313L833 293L890 293L890 274L856 274L856 254L815 254L815 235L743 235L743 215L858 215L858 196L761 196L761 176L768 176L768 157L847 157L847 137L879 137L879 117L745 117L745 98L780 98L780 78L796 78L796 59L878 59L878 39L756 39L756 20L886 20L886 0L900 0L900 20L900 20L900 39L900 39L900 59L900 59L900 78L900 78L900 98L900 98L900 117L900 117L900 137L900 137L900 157L900 157L900 176L900 176L900 196L900 196L900 215L900 215L900 235L900 235L900 254L900 254L900 274L900 274L900 293L900 293L900 313L900 313L900 333L900 333L900 352L900 352L900 372L900 372L900 391L900 391L900 411L900 411L900 430L900 430L900 450L900 450Z" fill="#1836c0"></path><path d="M867 450L876 450L876 430L813 430L813 411L772 411L772 391L884 391L884 372L817 372L817 352L829 352L829 333L898 333L898 313L757 313L757 293L806 293L806 274L865 274L865 254L870 254L870 235L854 235L854 215L829 215L829 196L799 196L799 176L784 176L784 157L892 157L892 137L809 137L809 117L886 117L886 98L854 98L854 78L772 78L772 59L864 59L864 39L801 39L801 20L857 20L857 0L900 0L900 20L900 20L900 39L900 39L900 59L900 59L900 78L900 78L900 98L900 98L900 117L900 117L900 137L900 137L900 157L900 157L900 176L900 176L900 196L900 196L900 215L900 215L900 235L900 235L900 254L900 254L900 274L900 274L900 293L900 293L900 313L900 313L900 333L900 333L900 352L900 352L900 372L900 372L900 391L900 391L900 411L900 411L900 430L900 430L900 450L900 450Z" fill="#1a39cb"></path><path d="M817 450L817 450L817 430L840 430L840 411L858 411L858 391L821 391L821 372L827 372L827 352L897 352L897 333L833 333L833 313L866 313L866 293L884 293L884 274L884 274L884 254L884 254L884 235L884 235L884 215L867 215L867 196L817 196L817 176L813 176L813 157L852 157L852 137L825 137L825 117L837 117L837 98L839 98L839 78L850 78L850 59L855 59L855 39L814 39L814 20L804 20L804 0L900 0L900 20L900 20L900 39L900 39L900 59L900 59L900 78L900 78L900 98L900 98L900 117L900 117L900 137L900 137L900 157L900 157L900 176L900 176L900 196L900 196L900 215L900 215L900 235L900 235L900 254L900 254L900 274L900 274L900 293L900 293L900 313L900 313L900 333L900 333L900 352L900 352L900 372L900 372L900 391L900 391L900 411L900 411L900 430L900 430L900 450L900 450Z" fill="#1d3cd7"></path></svg>