<svg id="visual" viewBox="0 0 900 450" width="900" height="450" xmlns="http://www.w3.org/2000/svg" xmlns:xlink="http://www.w3.org/1999/xlink" version="1.1"><rect x="0" y="0" width="900" height="450" fill="#140915"></rect><path d="M0 215L8.8 214.2C17.7 213.3 35.3 211.7 53 217.2C70.7 222.7 88.3 235.3 106 238.5C123.7 241.7 141.3 235.3 159 229.5C176.7 223.7 194.3 218.3 212 213.7C229.7 209 247.3 205 265 208.2C282.7 211.3 300.3 221.7 318 229.5C335.7 237.3 353.3 242.7 371 244.2C388.7 245.7 406.3 243.3 423.8 236.5C441.3 229.7 458.7 218.3 476.2 214.8C493.7 211.3 511.3 215.7 529 218.5C546.7 221.3 564.3 222.7 582 221.8C599.7 221 617.3 218 635 219.7C652.7 221.3 670.3 227.7 688 229C705.7 230.3 723.3 226.7 741 226C758.7 225.3 776.3 227.7 794 228.7C811.7 229.7 829.3 229.3 847 227.7C864.7 226 882.3 223 891.2 221.5L900 220L900 451L891.2 451C882.3 451 864.7 451 847 451C829.3 451 811.7 451 794 451C776.3 451 758.7 451 741 451C723.3 451 705.7 451 688 451C670.3 451 652.7 451 635 451C617.3 451 599.7 451 582 451C564.3 451 546.7 451 529 451C511.3 451 493.7 451 476.2 451C458.7 451 441.3 451 423.8 451C406.3 451 388.7 451 371 451C353.3 451 335.7 451 318 451C300.3 451 282.7 451 265 451C247.3 451 229.7 451 212 451C194.3 451 176.7 451 159 451C141.3 451 123.7 451 106 451C88.3 451 70.7 451 53 451C35.3 451 17.7 451 8.8 451L0 451Z" fill="#a54fb0"></path><path d="M0 274L8.8 274.5C17.7 275 35.3 276 53 277C70.7 278 88.3 279 106 280C123.7 281 141.3 282 159 279.5C176.7 277 194.3 271 212 266.2C229.7 261.3 247.3 257.7 265 259.3C282.7 261 300.3 268 318 273.7C335.7 279.3 353.3 283.7 371 277.7C388.7 271.7 406.3 255.3 423.8 247.2C441.3 239 458.7 239 476.2 243.3C493.7 247.7 511.3 256.3 529 258C546.7 259.7 564.3 254.3 582 254.3C599.7 254.3 617.3 259.7 635 261.8C652.7 264 670.3 263 688 259C705.7 255 723.3 248 741 250.3C758.7 252.7 776.3 264.3 794 265.8C811.7 267.3 829.3 258.7 847 254.2C864.7 249.7 882.3 249.3 891.2 249.2L900 249L900 451L891.2 451C882.3 451 864.7 451 847 451C829.3 451 811.7 451 794 451C776.3 451 758.7 451 741 451C723.3 451 705.7 451 688 451C670.3 451 652.7 451 635 451C617.3 451 599.7 451 582 451C564.3 451 546.7 451 529 451C511.3 451 493.7 451 476.2 451C458.7 451 441.3 451 423.8 451C406.3 451 388.7 451 371 451C353.3 451 335.7 451 318 451C300.3 451 282.7 451 265 451C247.3 451 229.7 451 212 451C194.3 451 176.7 451 159 451C141.3 451 123.7 451 106 451C88.3 451 70.7 451 53 451C35.3 451 17.7 451 8.8 451L0 451Z" fill="#8b4394"></path><path d="M0 292L8.8 294.3C17.7 296.7 35.3 301.3 53 307C70.7 312.7 88.3 319.3 106 317.3C123.7 315.3 141.3 304.7 159 298.8C176.7 293 194.3 292 212 293.5C229.7 295 247.3 299 265 299C282.7 299 300.3 295 318 294.5C335.7 294 353.3 297 371 295.7C388.7 294.3 406.3 288.7 423.8 291.2C441.3 293.7 458.7 304.3 476.2 307.7C493.7 311 511.3 307 529 301.5C546.7 296 564.3 289 582 293C599.7 297 617.3 312 635 316.2C652.7 320.3 670.3 313.7 688 313.7C705.7 313.7 723.3 320.3 741 323C758.7 325.7 776.3 324.3 794 322.8C811.7 321.3 829.3 319.7 847 319C864.7 318.3 882.3 318.7 891.2 318.8L900 319L900 451L891.2 451C882.3 451 864.7 451 847 451C829.3 451 811.7 451 794 451C776.3 451 758.7 451 741 451C723.3 451 705.7 451 688 451C670.3 451 652.7 451 635 451C617.3 451 599.7 451 582 451C564.3 451 546.7 451 529 451C511.3 451 493.7 451 476.2 451C458.7 451 441.3 451 423.8 451C406.3 451 388.7 451 371 451C353.3 451 335.7 451 318 451C300.3 451 282.7 451 265 451C247.3 451 229.7 451 212 451C194.3 451 176.7 451 159 451C141.3 451 123.7 451 106 451C88.3 451 70.7 451 53 451C35.3 451 17.7 451 8.8 451L0 451Z" fill="#713779"></path><path d="M0 360L8.8 352.7C17.7 345.3 35.3 330.7 53 330.5C70.7 330.3 88.3 344.7 106 351.3C123.7 358 141.3 357 159 357.2C176.7 357.3 194.3 358.7 212 357.2C229.7 355.7 247.3 351.3 265 344.8C282.7 338.3 300.3 329.7 318 332.2C335.7 334.7 353.3 348.3 371 351.2C388.7 354 406.3 346 423.8 338.8C441.3 331.7 458.7 325.3 476.2 326.2C493.7 327 511.3 335 529 335.3C546.7 335.7 564.3 328.3 582 331.2C599.7 334 617.3 347 635 346.2C652.7 345.3 670.3 330.7 688 322.8C705.7 315 723.3 314 741 320C758.7 326 776.3 339 794 344.7C811.7 350.3 829.3 348.7 847 346.2C864.7 343.7 882.3 340.3 891.2 338.7L900 337L900 451L891.2 451C882.3 451 864.7 451 847 451C829.3 451 811.7 451 794 451C776.3 451 758.7 451 741 451C723.3 451 705.7 451 688 451C670.3 451 652.7 451 635 451C617.3 451 599.7 451 582 451C564.3 451 546.7 451 529 451C511.3 451 493.7 451 476.2 451C458.7 451 441.3 451 423.8 451C406.3 451 388.7 451 371 451C353.3 451 335.7 451 318 451C300.3 451 282.7 451 265 451C247.3 451 229.7 451 212 451C194.3 451 176.7 451 159 451C141.3 451 123.7 451 106 451C88.3 451 70.7 451 53 451C35.3 451 17.7 451 8.8 451L0 451Z" fill="#592b5f"></path><path d="M0 391L8.8 389.5C17.7 388 35.3 385 53 380.5C70.7 376 88.3 370 106 370.2C123.7 370.3 141.3 376.7 159 381C176.7 385.3 194.3 387.7 212 385C229.7 382.3 247.3 374.7 265 370.8C282.7 367 300.3 367 318 370.5C335.7 374 353.3 381 371 381.2C388.7 381.3 406.3 374.7 423.8 370.8C441.3 367 458.7 366 476.2 367.3C493.7 368.7 511.3 372.3 529 370.8C546.7 369.3 564.3 362.7 582 359.2C599.7 355.7 617.3 355.3 635 354.3C652.7 353.3 670.3 351.7 688 355.7C705.7 359.7 723.3 369.3 741 376.3C758.7 383.3 776.3 387.7 794 384.8C811.7 382 829.3 372 847 370.8C864.7 369.7 882.3 377.3 891.2 381.2L900 385L900 451L891.2 451C882.3 451 864.7 451 847 451C829.3 451 811.7 451 794 451C776.3 451 758.7 451 741 451C723.3 451 705.7 451 688 451C670.3 451 652.7 451 635 451C617.3 451 599.7 451 582 451C564.3 451 546.7 451 529 451C511.3 451 493.7 451 476.2 451C458.7 451 441.3 451 423.8 451C406.3 451 388.7 451 371 451C353.3 451 335.7 451 318 451C300.3 451 282.7 451 265 451C247.3 451 229.7 451 212 451C194.3 451 176.7 451 159 451C141.3 451 123.7 451 106 451C88.3 451 70.7 451 53 451C35.3 451 17.7 451 8.8 451L0 451Z" fill="#412046"></path><path d="M0 423L8.8 419.3C17.7 415.7 35.3 408.3 53 406.8C70.7 405.3 88.3 409.7 106 410.7C123.7 411.7 141.3 409.3 159 410.8C176.7 412.3 194.3 417.7 212 417.8C229.7 418 247.3 413 265 407.7C282.7 402.3 300.3 396.7 318 398C335.7 399.3 353.3 407.7 371 412.7C388.7 417.7 406.3 419.3 423.8 415.3C441.3 411.3 458.7 401.7 476.2 403C493.7 404.3 511.3 416.7 529 419.5C546.7 422.3 564.3 415.7 582 409.8C599.7 404 617.3 399 635 400.5C652.7 402 670.3 410 688 416.2C705.7 422.3 723.3 426.7 741 425.7C758.7 424.7 776.3 418.3 794 416.2C811.7 414 829.3 416 847 415C864.7 414 882.3 410 891.2 408L900 406L900 451L891.2 451C882.3 451 864.7 451 847 451C829.3 451 811.7 451 794 451C776.3 451 758.7 451 741 451C723.3 451 705.7 451 688 451C670.3 451 652.7 451 635 451C617.3 451 599.7 451 582 451C564.3 451 546.7 451 529 451C511.3 451 493.7 451 476.2 451C458.7 451 441.3 451 423.8 451C406.3 451 388.7 451 371 451C353.3 451 335.7 451 318 451C300.3 451 282.7 451 265 451C247.3 451 229.7 451 212 451C194.3 451 176.7 451 159 451C141.3 451 123.7 451 106 451C88.3 451 70.7 451 53 451C35.3 451 17.7 451 8.8 451L0 451Z" fill="#2b152e"></path></svg>